PathFileType  4	(X/Y/Z) C:\Users\antoi\Documents\MyRepositories\mobilecap\ResultsAnalysis
DataRate	CameraRate	NumFrames	NumMarkers	Units	OrigDataRate	OrigDataStartFrame	OrigNumFrames
100.0	100.0	4	51	mm	100.0	169	1346
Frame#	Time	r_knee			r_shank_antsup			r_ankle			r_calc			r_5meta			r_toe			L_knee			L_shank_antsup			L_ankle			L_calc			L_5meta			L_toe			r_sh2			r_sh3			r_sh4			L_sh2			L_sh3			r_thigh1			r_thigh2			r_thigh3			r_thigh4			r_thigh5			L_thigh1			L_thigh2			L_thigh3			L_thigh4			r.ASIS			r.PSIS			L.ASIS			L.PSIS			C7			R_Shoulder			L_Shoulder			R_Sternum			L_Sternum			R_humerus			R_elbow_med			R_elbow_lat			R_forearm			R_wrist_radius			R_wrist_ulna			L_humerus			L_elbow_med			L_elbow_lat			L_forearm			L_wrist_radius			L_wrist_ulna			R_HJC			L_HJC			R_HJC_reg			L_HJC_reg			
		X1	Y1	Z1	X2	Y2	Z2	X3	Y3	Z3	X4	Y4	Z4	X5	Y5	Z5	X6	Y6	Z6	X7	Y7	Z7	X8	Y8	Z8	X9	Y9	Z9	X10	Y10	Z10	X11	Y11	Z11	X12	Y12	Z12	X13	Y13	Z13	X14	Y14	Z14	X15	Y15	Z15	X16	Y16	Z16	X17	Y17	Z17	X18	Y18	Z18	X19	Y19	Z19	X20	Y20	Z20	X21	Y21	Z21	X22	Y22	Z22	X23	Y23	Z23	X24	Y24	Z24	X25	Y25	Z25	X26	Y26	Z26	X27	Y27	Z27	X28	Y28	Z28	X29	Y29	Z29	X30	Y30	Z30	X31	Y31	Z31	X32	Y32	Z32	X33	Y33	Z33	X34	Y34	Z34	X35	Y35	Z35	X36	Y36	Z36	X37	Y37	Z37	X38	Y38	Z38	X39	Y39	Z39	X40	Y40	Z40	X41	Y41	Z41	X42	Y42	Z42	X43	Y43	Z43	X44	Y44	Z44	X45	Y45	Z45	X46	Y46	Z46	X47	Y47	Z47	X48	Y48	Z48	X49	Y49	Z49	X50	Y50	Z50	X51	Y51	Z51	

169	1.68000000	-110.82029	454.66036	-408.58272	-80.85870	356.26784	-403.21161	-277.48907	93.89323	-392.72499	-338.96806	55.80337	-437.71386	-162.02761	48.13129	-344.59114	-129.23751	81.42994	-396.35713	-132.69091	469.11773	-812.69724	-87.31149	375.88952	-806.91859	-265.25866	95.17217	-822.32485	-337.13959	49.37095	-773.05503	-163.09387	42.65241	-863.22462	-115.77625	74.59206	-813.00840	-135.48400	255.44962	-398.32787	-140.94333	387.37689	-370.44675	-200.74426	290.27461	-359.56973	-156.49057	419.79048	-844.84386	-205.99293	309.45455	-859.09918	-313.25157	637.61663	-414.07109	-215.90738	589.81165	-422.79931	-216.87081	531.08542	-384.44825	-362.89340	538.85571	-390.14382	-256.21139	490.89931	-397.74517	-300.03932	653.98930	-785.93807	-174.23013	594.23099	-780.79215	-345.84148	566.90882	-832.92688	-227.00740	506.14330	-818.99186	-301.08799	670.51299	-495.76226	-478.84110	786.48545	-546.06551	-331.00059	693.34295	-737.08447	-487.06670	794.58742	-640.60297	-239.01528	1158.32793	-608.56791	-119.64793	1125.22541	-482.45230	-148.90229	1109.34056	-743.14439	-136.68408	1053.27793	-597.42575	-143.59843	1054.18510	-633.66816	-18.85424	1076.70999	-436.67403	82.50489	899.18039	-362.87469	95.09414	952.08132	-316.62106	151.28914	1001.26984	-376.72532	236.41020	1029.48252	-514.28957	271.67694	1020.64359	-480.45893	-56.28875	1066.06666	-799.67499	68.23321	906.54755	-832.95042	79.22368	966.75556	-886.38537	130.48022	1005.85147	-838.12647	244.18017	1037.77482	-712.98102	275.13248	1029.51402	-754.31376	-413.53599	625.47318	-509.96773	-431.89021	641.68651	-697.94166	-402.53498	634.75292	-524.38938	-416.45591	648.46520	-684.39718	
170	1.69000000	-110.20857	455.36992	-409.35652	-80.87767	356.49762	-403.80198	-277.39783	93.87480	-392.68237	-338.86700	55.87645	-437.76561	-161.90998	48.02408	-344.59697	-129.08519	81.07331	-396.36968	-132.21679	469.33136	-812.22716	-87.24535	375.95402	-806.52503	-265.18425	95.13124	-822.19206	-337.12527	49.34504	-773.06049	-163.05088	42.67830	-863.28518	-115.72639	74.55318	-813.03464	-135.39607	255.61935	-398.61913	-140.87745	387.67305	-371.01241	-201.08128	290.14918	-359.71628	-156.07888	420.24886	-845.36814	-205.94587	309.57892	-858.85958	-309.60019	641.50422	-414.79668	-213.89552	592.01496	-422.77672	-215.21268	533.35581	-384.91679	-361.13804	543.64617	-390.57688	-255.24182	493.89642	-398.50296	-296.47887	657.14443	-786.26334	-171.79639	595.27695	-780.68494	-343.75783	570.54410	-832.78483	-226.02802	507.91798	-818.48960	-299.13296	676.89800	-497.13643	-476.74032	793.03844	-546.28431	-328.60420	699.44219	-737.52354	-485.17976	801.16909	-640.82064	-240.88461	1167.09220	-609.15184	-121.91749	1134.47713	-481.98490	-151.27107	1117.85640	-744.33262	-137.60684	1062.81185	-597.69244	-144.66625	1063.26120	-633.85371	-21.06083	1084.42473	-435.61792	77.92717	904.68702	-363.28418	91.31910	957.26151	-316.88208	148.14174	1005.80441	-376.80573	234.12741	1032.66986	-514.06808	269.02409	1023.68898	-479.80068	-58.85515	1072.94730	-801.63449	64.08981	911.54313	-831.64761	75.39899	970.80435	-887.06315	127.44618	1009.63515	-839.22610	242.71187	1040.01666	-714.70618	273.10418	1031.33427	-756.53959	-411.43981	631.84382	-510.56791	-429.99297	648.16450	-698.51350	-400.15529	641.43380	-525.40951	-414.37641	655.13532	-684.72422	
171	1.70000000	-109.81186	456.01334	-409.86834	-80.90896	356.66233	-404.21678	-277.32314	93.83880	-392.66034	-338.80547	55.89585	-437.79675	-161.84610	47.85409	-344.60863	-128.96872	80.77713	-396.40011	-131.85972	469.78266	-812.02752	-87.30238	376.04555	-806.08094	-265.13457	95.13907	-822.14699	-337.08812	49.30530	-772.97087	-163.01534	42.62536	-863.30687	-115.68074	74.45917	-813.04116	-135.40707	255.72476	-399.22049	-141.01608	387.96641	-371.29196	-201.25903	290.28749	-359.92824	-155.90106	420.80387	-846.01413	-205.99960	309.66438	-858.54551	-305.94764	645.53995	-415.24828	-211.93256	593.87029	-422.78871	-213.60628	535.65716	-385.29482	-359.34439	548.59790	-390.91098	-254.35662	497.09570	-399.07739	-293.15680	660.42635	-786.61661	-169.51024	596.40106	-780.72951	-341.72296	574.32169	-832.75837	-225.11552	509.78882	-818.21039	-296.79441	684.02126	-497.59470	-474.66885	799.80984	-546.49071	-326.07470	705.57038	-737.60635	-483.18379	807.87414	-641.26229	-242.82278	1176.00236	-609.69754	-124.22093	1143.91947	-481.49243	-153.64451	1126.60096	-745.68732	-138.68570	1072.49656	-597.84791	-145.79199	1072.50181	-633.94092	-23.35681	1092.16768	-434.48307	72.81506	909.99938	-363.58377	87.06632	962.14058	-317.12882	144.77945	1010.02402	-376.68074	231.75863	1035.49354	-513.67515	266.22832	1025.95115	-479.21434	-61.37875	1079.83737	-803.65435	59.39962	916.10882	-831.09323	71.37653	974.70094	-887.91272	124.14671	1013.22044	-840.36710	241.01351	1042.04272	-716.49549	270.67066	1032.93175	-758.69401	-409.07352	638.79261	-510.53652	-427.70033	654.54423	-698.52208	-397.60889	648.15377	-525.75183	-411.89550	661.68369	-684.75436	
172	1.71000000	-109.82035	456.55991	-410.15337	-80.99076	356.82458	-404.51171	-277.22194	93.80020	-392.66336	-338.78468	55.91195	-437.76866	-161.76216	47.52749	-344.69278	-128.87805	80.54888	-396.39901	-131.64262	470.34635	-811.85197	-87.45503	376.17081	-805.72887	-265.10098	95.15134	-822.15227	-337.02190	49.36410	-772.89282	-162.99422	42.45553	-863.22724	-115.63953	74.26443	-813.03323	-135.54362	255.90710	-399.83563	-141.22294	388.25764	-371.40440	-201.28707	290.63688	-360.14687	-156.14161	420.99198	-845.76196	-206.18142	309.76632	-858.21367	-302.57767	649.68344	-415.29244	-209.53304	596.08110	-422.87833	-212.09709	538.08714	-385.60459	-357.50666	553.66849	-391.17291	-253.53556	500.46652	-399.24674	-289.78183	663.71813	-787.03369	-167.20686	597.53877	-780.98118	-339.86041	578.18329	-832.66665	-224.32424	511.75646	-818.09037	-294.09175	691.77455	-497.14819	-472.60861	806.74989	-546.56349	-323.52016	711.86529	-737.73762	-481.22889	814.62372	-641.63014	-244.76836	1185.04807	-610.23184	-126.52443	1153.41998	-480.98125	-155.87852	1135.48316	-747.17692	-139.95237	1082.30998	-597.77857	-147.11959	1081.90681	-633.76776	-25.80422	1099.85814	-433.40966	67.19610	915.22130	-363.97897	82.32218	966.79811	-317.25764	141.14789	1013.87032	-376.31289	229.30522	1037.96016	-513.12834	263.30105	1027.67282	-478.41021	-63.84277	1086.75106	-805.60935	54.49747	919.97087	-831.74659	67.16877	978.45310	-888.80557	120.62014	1016.50412	-841.43049	239.25327	1043.63699	-718.44887	268.05116	1034.39348	-761.17695	-406.37914	646.18063	-509.99001	-425.14222	660.90243	-698.04552	-394.86456	654.88082	-525.30837	-409.31182	668.07656	-684.63267	
